# xmcd
#
# Track frame offsets: 
#        150
#        16921
#        33071
#        49580
#        69431
#        85931
#        101457
#        121458
#        136940
#        153778
#        171906
#        188166
#        199958
#        213916
#        229313
#
# Disc length: 3264 seconds
#
# Revision: 0
# Processed by: cddbd v1.5.2PL0 Copyright (c) Steve Scherf et al.
# Submitted via: ExactAudioCopy v0.95a5
#
DISCID=c00cbe0f
DTITLE=Mario Vazquez - Mario Vazquez
DYEAR=2006
DGENRE=R&B
TTITLE0=Gallery
TTITLE1=I Bet
TTITLE2=Cohiba
TTITLE3=One Shot
TTITLE4=We Gon' Last
TTITLE5=Don't Lie
TTITLE6=Just a Friend
TTITLE7=Fired Up
TTITLE8=4 the One
TTITLE9=Everytime I...
TTITLE10=How We Do It
TTITLE11=She Got Me
TTITLE12=Like It or Not
TTITLE13=We Supposed to Be
TTITLE14=Ask About My Love(bonus track)
EXTD=
EXTT0=
EXTT1=
EXTT2=
EXTT3=
EXTT4=
EXTT5=
EXTT6=
EXTT7=
EXTT8=
EXTT9=
EXTT10=
EXTT11=
EXTT12=
EXTT13=
EXTT14=
PLAYORDER=
